<svg width="20" height="19" viewBox="0 0 20 19" xmlns="http://www.w3.org/2000/svg">
<path d="M10.001 1.52901C12.35 -0.57999 15.98 -0.50999 18.243 1.75701C20.505 4.02501 20.583 7.63701 18.479 9.99301L9.99901 18.485L1.52101 9.99301C-0.582994 7.63701 -0.503994 4.01901 1.75701 1.75701C4.02201 -0.506989 7.64501 -0.58299 10.001 1.52901ZM16.827 3.17001C15.327 1.66801 12.907 1.60701 11.337 3.01701L10.002 4.21501L8.66601 3.01801C7.09101 1.60601 4.67601 1.66801 3.17201 3.17201C1.68201 4.66201 1.60701 7.04701 2.98001 8.62301L10 15.654L17.02 8.62401C18.394 7.04701 18.319 4.66501 16.827 3.17001Z" fill="#1D1D1D" opacity="0.5"/>
</svg>
